<svg xmlns="http://www.w3.org/2000/svg" version="1.1" xmlns:xlink="http://www.w3.org/1999/xlink" xmlns:svgjs="http://svgjs.com/svgjs" width="1440" height="560" preserveAspectRatio="none" viewBox="0 0 1440 560">
    <g mask="url(&quot;#SvgjsMask1102&quot;)" fill="none">
        <rect width="1440" height="560" x="0" y="0" fill="#0e2a47"></rect>
        <use xlink:href="#SvgjsG1111" transform="translate(0, 0)" fill="#0f457b"></use>
        <use xlink:href="#SvgjsG1111" transform="translate(0, 480)" fill="#0f457b"></use>
        <use xlink:href="#SvgjsG1111" transform="translate(480, 0)" fill="#0f457b"></use>
        <use xlink:href="#SvgjsG1111" transform="translate(480, 480)" fill="#0f457b"></use>
        <use xlink:href="#SvgjsG1111" transform="translate(960, 0)" fill="#0f457b"></use>
        <use xlink:href="#SvgjsG1111" transform="translate(960, 480)" fill="#0f457b"></use>
    </g>
    <defs>
        <mask id="SvgjsMask1102">
            <rect width="1440" height="560" fill="#ffffff"></rect>
        </mask>
        <g id="SvgjsG1109">
            <path d="M3.474 10.969C3.474 7.665 8.077 0.361 8.077 0.361s4.602 7.305 4.602 10.608c0 2.247-1.506 4.771-4.602 4.771-3.095 0-4.603-2.524-4.603-4.771z" fill-rule="evenodd"></path>
        </g>
        <g id="SvgjsG1107">
            <path d="M15.294 10.895l-6.741-3.979V6.238c0-0.768-0.838-1.102-0.838-1.101-0.542-0.264-0.494-0.834-0.494-0.835 0-0.669 0.598-0.884 0.865-0.883 0.448 0 0.888 0.249 0.935 0.817 0.073 0.893 1.084 0.666 1.083-0.051C10.106 3.508 9.488 2.32 8.079 2.32 6.556 2.32 6.118 3.809 6.118 4.28c0 0.355 0.056 0.683 0.276 1.058 0.373 0.636 1.118 0.736 1.118 1.157v0.421L0.702 10.91C0.03 11.307-0.091 12.15 0.055 12.662c0.142 0.497 0.64 1.089 1.537 1.089h12.729c1.003 0 1.461-0.576 1.604-1.072 0.144-0.51 0.144-1.304-0.632-1.783z m-0.956 1.739H1.612c-0.414 0.016-0.67-0.564-0.261-0.82L7.99 7.938l6.604 3.859c0.41 0.29 0.188 0.836-0.256 0.837z"></path>
        </g>
        <g id="SvgjsG1103">
            <path d="M2.817 7.889c-0.294 0-0.535 0.241-0.535 0.539a0.534 0.534 0 1 0 0.534-0.539M10.252 3.425a1.164 1.164 0 0 0 0-2.324 1.164 1.164 0 0 0 0 2.327M4.047 5.795a0.844 0.844 0 0 1-0.553 0.33 1.373 1.373 0 0 1-1.018-0.266 1.396 1.396 0 0 1-0.589-0.876l-0.015-0.167c0-0.175 0.048-0.332 0.145-0.465 0.305-0.433 1.012-0.463 1.576-0.064 0.557 0.399 0.764 1.076 0.454 1.509m11.2 7.99L13.361 11.555 12.771 8.102l-0.09-0.39c0.004 0.004-0.237-1.087-0.422-1.939l0.574 0.329c0.015 0.033 1.004 1.911 1.004 1.911a0.592 0.592 0 1 0 1.047-0.553l-1.085-2.062s-0.044-0.073-0.097-0.131c-0.079-0.077-0.25-0.175-0.25-0.175L11.35 3.898a1.271 1.271 0 0 0-1.218 0.025c-0.015 0.004-0.48 0.209-0.749 0.844L8.305 6.938l-1.701 0.33c-0.015 0.004-0.026 0.006-0.038 0.015L5.027 6.196c-0.343-0.241-0.387-0.967-0.393-0.995-0.041-0.497-0.324-0.966-0.778-1.288a1.876 1.876 0 0 0-1.363-0.342 1.295 1.295 0 0 0-0.848 0.516 1.245 1.245 0 0 0-0.228 0.73l0.02 0.236c0.079 0.458 0.361 0.883 0.771 1.178 0.416 0.294 0.909 0.419 1.364 0.342l0.107-0.023c0.012-0.007 0.694-0.218 1.025 0.01 0 0.006 1.149 0.815 1.455 1.033a0.531 0.531 0 0 0-0.085 0.272 0.591 0.591 0 0 0 0.704 0.574l2.037-0.397s0.175-0.055 0.247-0.107c0.097-0.067 0.169-0.209 0.169-0.21l0.538-1.079 0.374 1.774c-0.044 0.044-1.673 1.775-1.673 1.775l-0.029 0.032c-0.16 0.148-0.247 0.339-0.248 0.541v3.665a0.71 0.71 0 0 0 1.417 0V11.375c0.15-0.16 1.396-1.475 1.731-1.824l0.361 2.065a0.829 0.829 0 0 0 0.222 0.431c0 0.004 2.244 2.653 2.245 2.653a0.708 0.708 0 0 0 1.079-0.917"></path>
        </g>
        <g id="SvgjsG1110">
            <path d="M9.44 4.356c0.657 0 1.191-0.54 1.191-1.206 0-0.664-0.535-1.205-1.191-1.205-0.659 0-1.192 0.541-1.192 1.205 0 0.666 0.532 1.206 1.192 1.206m3.237 10.519L10.919 9.48V5.162c0-0.566-0.56-0.541-0.56-0.541H8.09s-0.095-0.014-0.292 0.148l-1.323 0.781-1.378-1.398c-0.225-0.269-0.623-0.309-0.892-0.081-0.27 0.227-0.284 0.64-0.059 0.913l1.76 1.781c0.119 0.126 0.285 0.214 0.472 0.214a0.648 0.648 0 0 0 0.369-0.117l1.159-0.646v3.166L6.131 14.864a0.892 0.892 0 0 0 0.625 1.095c0.472 0.127 0.958-0.157 1.083-0.633L9.389 10.595l1.579 4.742c0.128 0.478 0.612 0.763 1.083 0.631 0.472-0.127 0.752-0.617 0.626-1.093"></path>
            <path d="M3.833 5.592a0.158 0.158 0 0 0 0.225 0l0.021-0.019c0.059-0.064 0.063-0.165 0-0.227l-0.343-0.359a0.163 0.163 0 0 0-0.229-0.001l-0.018 0.021c-0.063 0.064-0.067 0.166-0.004 0.227l0.348 0.358zM7.13 1.549l-2.034 2.221 0.245 0.255 2.27-1.978 1.509-1.404c0.06-0.069 0.099-0.156 0.099-0.253 0-0.213-0.17-0.388-0.376-0.39-0.102-0.002-0.19 0.038-0.26 0.098L7.131 1.549z"></path>
        </g>
        <g id="SvgjsG1108">
            <path d="M16 13.788a2.347 2.347 0 0 1-0.984-0.217 2.437 2.437 0 0 0-1.014-0.226c-0.364 0-0.71 0.085-1.016 0.225a2.346 2.346 0 0 1-0.984 0.218c-0.35 0-0.686-0.079-0.984-0.218-0.311-0.14-0.658-0.225-1.016-0.225-0.362 0-0.709 0.085-1.017 0.225a2.353 2.353 0 0 1-0.984 0.218c-0.35 0-0.684-0.079-0.986-0.218-0.307-0.14-0.653-0.225-1.012-0.225-0.362 0-0.709 0.085-1.016 0.225a2.359 2.359 0 0 1-0.988 0.218c-0.345 0-0.684-0.079-0.983-0.218-0.307-0.14-0.654-0.225-1.016-0.225-0.36 0-0.705 0.085-1.012 0.225A2.375 2.375 0 0 1 0 13.788v-1.493c0.35 0 0.684-0.082 0.988-0.214a2.386 2.386 0 0 1 1.012-0.229c0.362 0 0.709 0.085 1.016 0.229 0.298 0.133 0.637 0.214 0.982 0.214 0.35 0 0.69-0.082 0.988-0.214a2.394 2.394 0 0 1 1.017-0.229c0.359 0 0.705 0.085 1.011 0.229 0.302 0.133 0.636 0.214 0.987 0.214 0.347 0 0.686-0.082 0.984-0.214a2.396 2.396 0 0 1 1.016-0.229c0.358 0 0.705 0.085 1.016 0.229 0.298 0.133 0.634 0.214 0.984 0.214 0.35 0 0.684-0.082 0.984-0.214a2.386 2.386 0 0 1 1.016-0.229c0.362 0 0.709 0.085 1.015 0.229 0.3 0.133 0.634 0.214 0.984 0.214v1.493z m-2.317-4.224c1.051 0 1.903-0.866 1.903-1.928 0-1.063-0.852-1.925-1.903-1.925-1.053 0-1.904 0.862-1.904 1.925 0 1.063 0.776 1.929 1.904 1.929z"></path>
            <path d="M2.597 10.648c0.148 0.036 0.287 0.088 0.419 0.148a2.38 2.38 0 0 0 0.983 0.218c0.35 0 0.69-0.081 0.988-0.218 0.307-0.141 0.653-0.23 1.016-0.229 0.359 0 0.705 0.089 1.012 0.229 0.302 0.136 0.636 0.218 0.986 0.218 0.347 0 0.686-0.081 0.984-0.218 0.307-0.141 0.654-0.23 1.016-0.229 0.358 0 0.705 0.089 1.016 0.229a2.37 2.37 0 0 0 0.984 0.218 2.429 2.429 0 0 0 0.733-0.117l-3.175-5.794 3.693-0.681c0.542-0.104 0.936-0.535 0.935-1.087 0-0.608-0.49-1.095-1.087-1.095-0.043 0-0.083 0-0.124 0.004l-5.704 1.05c-0.4 0.093-0.931 0.685-0.629 1.413l0.049 0.117 1.489 2.718L2.597 10.648z"></path>
        </g>
        <g id="SvgjsG1105">
            <path d="M5.731 2.199a2.199 2.199 0 1 0 4.398 0 2.199 2.199 0 1 0-4.398 0"></path>
            <path d="M5.184 5.068C3.628 5.068 2.24 6.329 2.24 7.885v6.819c0 0.532 0.419 0.964 0.95 0.964a0.963 0.963 0 0 0 0.962-0.964v-6.148h0.797V16H10.944V8.556h0.806v6.148c0 0.532 0.431 0.964 0.963 0.964s0.95-0.432 0.95-0.964V7.885c0-1.556-1.275-2.817-2.831-2.817H5.185z"></path>
        </g>
        <g id="SvgjsG1106">
            <path d="M7.996 3.995c-1.111 0-2.014-0.895-2.014-1.998C5.982 0.894 6.884 0 7.996 0c1.112 0 2.013 0.894 2.013 1.997 0 1.103-0.902 1.998-2.013 1.998zM14.03 12.267l-1.585-5.521C11.811 4.539 9.964 4.607 9.964 4.607H6.027s-1.847-0.069-2.48 2.138L1.961 12.267c-0.151 0.516 0.133 0.91 0.584 1.04 0.45 0.129 0.911-0.098 1.03-0.511l1.541-5.382 0.753-0.001L3.405 16H12.586L10.122 7.413l0.752 0.001 1.542 5.382c0.118 0.413 0.579 0.64 1.03 0.511 0.451-0.129 0.736-0.523 0.584-1.04z" fill-rule="evenodd"></path>
        </g>
        <g id="SvgjsG1104">
            <path d="M7.101 11.212v3.79s0.126 0.998-1.109 0.998h-4.88c-1.238 0-1.108-0.998-1.108-0.998v-3.79h7.097zM4.85 0.46A0.962 0.962 0 0 0 4.026 0L2.454 0.003c-0.553 0-1.001 0.453-1.001 1.012 0 0.197 0.059 0.379 0.154 0.532l0.009 0.015a4.101 4.101 0 0 1 0.736 2.352c0 1.483-0.785 2.786-1.954 3.498l-0.014 0.004a0.814 0.814 0 0 0-0.376 0.69v1.202h7.098V4.887s0.01-0.409-0.263-0.914L4.85 0.461z m5.652 0A0.968 0.968 0 0 1 11.326 0l1.576 0.003c0.551 0 0.999 0.453 0.999 1.012 0 0.197-0.053 0.379-0.148 0.532l-0.015 0.014c-0.46 0.67-0.736 1.478-0.736 2.352 0 1.483 0.785 2.786 1.959 3.498l0.01 0.005c0.229 0.146 0.38 0.394 0.38 0.69v1.202H8.246v-4.421s-0.005-0.41 0.268-0.914L10.502 0.46z m4.846 10.752v3.79s0.126 0.998-1.111 0.998H9.357c-1.238 0-1.111-0.998-1.111-0.998v-3.79h7.102zM8.275 10.616a0.341 0.341 0 0 0 0.339-0.342c0-0.182-0.154-0.335-0.339-0.335h-1.132c-0.186 0-0.332 0.152-0.332 0.335 0 0.19 0.146 0.342 0.332 0.342h1.133z"></path>
        </g>
        <g id="SvgjsG1111">
            <use xlink:href="#SvgjsG1103" transform="translate(0, 0) scale(2)" fill="#0f457b"></use>
            <use xlink:href="#SvgjsG1104" transform="translate(0, 48) scale(2)" fill="#0f457b"></use>
            <use xlink:href="#SvgjsG1105" transform="translate(0, 96) scale(2)" fill="#0f457b"></use>
            <use xlink:href="#SvgjsG1104" transform="translate(0, 144) scale(2)" fill="#0f457b"></use>
            <use xlink:href="#SvgjsG1106" transform="translate(0, 192) scale(2)" fill="#0f457b"></use>
            <use xlink:href="#SvgjsG1105" transform="translate(0, 240) scale(2)" fill="#0f457b"></use>
            <use xlink:href="#SvgjsG1107" transform="translate(0, 288) scale(2)" fill="#0f457b"></use>
            <use xlink:href="#SvgjsG1106" transform="translate(0, 336) scale(2)" fill="#0f457b"></use>
            <use xlink:href="#SvgjsG1105" transform="translate(0, 384) scale(2)" fill="#0f457b"></use>
            <use xlink:href="#SvgjsG1105" transform="translate(0, 432) scale(2)" fill="#0f457b"></use>
            <use xlink:href="#SvgjsG1106" transform="translate(48, 0) scale(2)" fill="#0f457b"></use>
            <use xlink:href="#SvgjsG1107" transform="translate(48, 48) scale(2)" fill="#0f457b"></use>
            <use xlink:href="#SvgjsG1104" transform="translate(48, 96) scale(2)" fill="#0f457b"></use>
            <use xlink:href="#SvgjsG1103" transform="translate(48, 144) scale(2)" fill="#0f457b"></use>
            <use xlink:href="#SvgjsG1106" transform="translate(48, 192) scale(2)" fill="#0f457b"></use>
            <use xlink:href="#SvgjsG1108" transform="translate(48, 240) scale(2)" fill="#0f457b"></use>
            <use xlink:href="#SvgjsG1109" transform="translate(48, 288) scale(2)" fill="#0f457b"></use>
            <use xlink:href="#SvgjsG1108" transform="translate(48, 336) scale(2)" fill="#0f457b"></use>
            <use xlink:href="#SvgjsG1103" transform="translate(48, 384) scale(2)" fill="#0f457b"></use>
            <use xlink:href="#SvgjsG1109" transform="translate(48, 432) scale(2)" fill="#0f457b"></use>
            <use xlink:href="#SvgjsG1109" transform="translate(96, 0) scale(2)" fill="#0f457b"></use>
            <use xlink:href="#SvgjsG1103" transform="translate(96, 48) scale(2)" fill="#0f457b"></use>
            <use xlink:href="#SvgjsG1103" transform="translate(96, 96) scale(2)" fill="#0f457b"></use>
            <use xlink:href="#SvgjsG1110" transform="translate(96, 144) scale(2)" fill="#0f457b"></use>
            <use xlink:href="#SvgjsG1108" transform="translate(96, 192) scale(2)" fill="#0f457b"></use>
            <use xlink:href="#SvgjsG1108" transform="translate(96, 240) scale(2)" fill="#0f457b"></use>
            <use xlink:href="#SvgjsG1105" transform="translate(96, 288) scale(2)" fill="#0f457b"></use>
            <use xlink:href="#SvgjsG1105" transform="translate(96, 336) scale(2)" fill="#0f457b"></use>
            <use xlink:href="#SvgjsG1107" transform="translate(96, 384) scale(2)" fill="#0f457b"></use>
            <use xlink:href="#SvgjsG1108" transform="translate(96, 432) scale(2)" fill="#0f457b"></use>
            <use xlink:href="#SvgjsG1108" transform="translate(144, 0) scale(2)" fill="#0f457b"></use>
            <use xlink:href="#SvgjsG1105" transform="translate(144, 48) scale(2)" fill="#0f457b"></use>
            <use xlink:href="#SvgjsG1108" transform="translate(144, 96) scale(2)" fill="#0f457b"></use>
            <use xlink:href="#SvgjsG1108" transform="translate(144, 144) scale(2)" fill="#0f457b"></use>
            <use xlink:href="#SvgjsG1103" transform="translate(144, 192) scale(2)" fill="#0f457b"></use>
            <use xlink:href="#SvgjsG1107" transform="translate(144, 240) scale(2)" fill="#0f457b"></use>
            <use xlink:href="#SvgjsG1104" transform="translate(144, 288) scale(2)" fill="#0f457b"></use>
            <use xlink:href="#SvgjsG1107" transform="translate(144, 336) scale(2)" fill="#0f457b"></use>
            <use xlink:href="#SvgjsG1108" transform="translate(144, 384) scale(2)" fill="#0f457b"></use>
            <use xlink:href="#SvgjsG1110" transform="translate(144, 432) scale(2)" fill="#0f457b"></use>
            <use xlink:href="#SvgjsG1110" transform="translate(192, 0) scale(2)" fill="#0f457b"></use>
            <use xlink:href="#SvgjsG1110" transform="translate(192, 48) scale(2)" fill="#0f457b"></use>
            <use xlink:href="#SvgjsG1110" transform="translate(192, 96) scale(2)" fill="#0f457b"></use>
            <use xlink:href="#SvgjsG1108" transform="translate(192, 144) scale(2)" fill="#0f457b"></use>
            <use xlink:href="#SvgjsG1104" transform="translate(192, 192) scale(2)" fill="#0f457b"></use>
            <use xlink:href="#SvgjsG1110" transform="translate(192, 240) scale(2)" fill="#0f457b"></use>
            <use xlink:href="#SvgjsG1108" transform="translate(192, 288) scale(2)" fill="#0f457b"></use>
            <use xlink:href="#SvgjsG1109" transform="translate(192, 336) scale(2)" fill="#0f457b"></use>
            <use xlink:href="#SvgjsG1108" transform="translate(192, 384) scale(2)" fill="#0f457b"></use>
            <use xlink:href="#SvgjsG1103" transform="translate(192, 432) scale(2)" fill="#0f457b"></use>
            <use xlink:href="#SvgjsG1110" transform="translate(240, 0) scale(2)" fill="#0f457b"></use>
            <use xlink:href="#SvgjsG1110" transform="translate(240, 48) scale(2)" fill="#0f457b"></use>
            <use xlink:href="#SvgjsG1110" transform="translate(240, 96) scale(2)" fill="#0f457b"></use>
            <use xlink:href="#SvgjsG1106" transform="translate(240, 144) scale(2)" fill="#0f457b"></use>
            <use xlink:href="#SvgjsG1103" transform="translate(240, 192) scale(2)" fill="#0f457b"></use>
            <use xlink:href="#SvgjsG1105" transform="translate(240, 240) scale(2)" fill="#0f457b"></use>
            <use xlink:href="#SvgjsG1108" transform="translate(240, 288) scale(2)" fill="#0f457b"></use>
            <use xlink:href="#SvgjsG1106" transform="translate(240, 336) scale(2)" fill="#0f457b"></use>
            <use xlink:href="#SvgjsG1105" transform="translate(240, 384) scale(2)" fill="#0f457b"></use>
            <use xlink:href="#SvgjsG1107" transform="translate(240, 432) scale(2)" fill="#0f457b"></use>
            <use xlink:href="#SvgjsG1110" transform="translate(288, 0) scale(2)" fill="#0f457b"></use>
            <use xlink:href="#SvgjsG1107" transform="translate(288, 48) scale(2)" fill="#0f457b"></use>
            <use xlink:href="#SvgjsG1108" transform="translate(288, 96) scale(2)" fill="#0f457b"></use>
            <use xlink:href="#SvgjsG1104" transform="translate(288, 144) scale(2)" fill="#0f457b"></use>
            <use xlink:href="#SvgjsG1110" transform="translate(288, 192) scale(2)" fill="#0f457b"></use>
            <use xlink:href="#SvgjsG1104" transform="translate(288, 240) scale(2)" fill="#0f457b"></use>
            <use xlink:href="#SvgjsG1105" transform="translate(288, 288) scale(2)" fill="#0f457b"></use>
            <use xlink:href="#SvgjsG1106" transform="translate(288, 336) scale(2)" fill="#0f457b"></use>
            <use xlink:href="#SvgjsG1108" transform="translate(288, 384) scale(2)" fill="#0f457b"></use>
            <use xlink:href="#SvgjsG1108" transform="translate(288, 432) scale(2)" fill="#0f457b"></use>
            <use xlink:href="#SvgjsG1105" transform="translate(336, 0) scale(2)" fill="#0f457b"></use>
            <use xlink:href="#SvgjsG1108" transform="translate(336, 48) scale(2)" fill="#0f457b"></use>
            <use xlink:href="#SvgjsG1103" transform="translate(336, 96) scale(2)" fill="#0f457b"></use>
            <use xlink:href="#SvgjsG1106" transform="translate(336, 144) scale(2)" fill="#0f457b"></use>
            <use xlink:href="#SvgjsG1104" transform="translate(336, 192) scale(2)" fill="#0f457b"></use>
            <use xlink:href="#SvgjsG1103" transform="translate(336, 240) scale(2)" fill="#0f457b"></use>
            <use xlink:href="#SvgjsG1103" transform="translate(336, 288) scale(2)" fill="#0f457b"></use>
            <use xlink:href="#SvgjsG1103" transform="translate(336, 336) scale(2)" fill="#0f457b"></use>
            <use xlink:href="#SvgjsG1109" transform="translate(336, 384) scale(2)" fill="#0f457b"></use>
            <use xlink:href="#SvgjsG1106" transform="translate(336, 432) scale(2)" fill="#0f457b"></use>
            <use xlink:href="#SvgjsG1103" transform="translate(384, 0) scale(2)" fill="#0f457b"></use>
            <use xlink:href="#SvgjsG1108" transform="translate(384, 48) scale(2)" fill="#0f457b"></use>
            <use xlink:href="#SvgjsG1107" transform="translate(384, 96) scale(2)" fill="#0f457b"></use>
            <use xlink:href="#SvgjsG1110" transform="translate(384, 144) scale(2)" fill="#0f457b"></use>
            <use xlink:href="#SvgjsG1108" transform="translate(384, 192) scale(2)" fill="#0f457b"></use>
            <use xlink:href="#SvgjsG1105" transform="translate(384, 240) scale(2)" fill="#0f457b"></use>
            <use xlink:href="#SvgjsG1106" transform="translate(384, 288) scale(2)" fill="#0f457b"></use>
            <use xlink:href="#SvgjsG1107" transform="translate(384, 336) scale(2)" fill="#0f457b"></use>
            <use xlink:href="#SvgjsG1107" transform="translate(384, 384) scale(2)" fill="#0f457b"></use>
            <use xlink:href="#SvgjsG1109" transform="translate(384, 432) scale(2)" fill="#0f457b"></use>
            <use xlink:href="#SvgjsG1108" transform="translate(432, 0) scale(2)" fill="#0f457b"></use>
            <use xlink:href="#SvgjsG1106" transform="translate(432, 48) scale(2)" fill="#0f457b"></use>
            <use xlink:href="#SvgjsG1107" transform="translate(432, 96) scale(2)" fill="#0f457b"></use>
            <use xlink:href="#SvgjsG1105" transform="translate(432, 144) scale(2)" fill="#0f457b"></use>
            <use xlink:href="#SvgjsG1105" transform="translate(432, 192) scale(2)" fill="#0f457b"></use>
            <use xlink:href="#SvgjsG1108" transform="translate(432, 240) scale(2)" fill="#0f457b"></use>
            <use xlink:href="#SvgjsG1106" transform="translate(432, 288) scale(2)" fill="#0f457b"></use>
            <use xlink:href="#SvgjsG1105" transform="translate(432, 336) scale(2)" fill="#0f457b"></use>
            <use xlink:href="#SvgjsG1106" transform="translate(432, 384) scale(2)" fill="#0f457b"></use>
            <use xlink:href="#SvgjsG1106" transform="translate(432, 432) scale(2)" fill="#0f457b"></use>
        </g>
    </defs>
</svg>